<svg width="35" height="28" viewBox="0 0 35 28" fill="none" xmlns="http://www.w3.org/2000/svg">
<path d="M5.71429 22.8394H4.14286C2.40711 22.8394 1 21.3666 1 19.5499V4.74684C1 2.93006 2.40711 1.45728 4.14286 1.45728H18.2857C20.0215 1.45728 21.4286 2.93006 21.4286 4.74684V19.5499C21.4286 21.3666 20.0215 22.8394 18.2857 22.8394H16.7143M23.7857 22.8394H23C22.1321 22.8394 21.4286 22.103 21.4286 21.1947V7.21401C21.4286 6.30562 22.1321 5.56923 23 5.56923H26.959C27.4364 5.56923 27.8879 5.79636 28.1861 6.18652L33.6556 13.3426C33.8786 13.6343 34 13.9966 34 14.3701V21.1947C34 22.103 33.2964 22.8394 32.4286 22.8394M15.1429 22.017C15.1429 24.288 13.384 26.129 11.2143 26.129C9.0446 26.129 7.28571 24.288 7.28571 22.017C7.28571 19.7461 9.0446 17.9051 11.2143 17.9051C13.384 17.9051 15.1429 19.7461 15.1429 22.017ZM31.6429 22.017C31.6429 24.288 29.884 26.129 27.7143 26.129C25.5446 26.129 23.7857 24.288 23.7857 22.017C23.7857 19.7461 25.5446 17.9051 27.7143 17.9051C29.884 17.9051 31.6429 19.7461 31.6429 22.017Z" stroke="black" stroke-width="2" stroke-linecap="round"/>
</svg>
