<svg width="30" height="35" viewBox="0 0 30 35" fill="none" xmlns="http://www.w3.org/2000/svg">
<path d="M15 19.8319C19.0132 19.8319 22.5966 20.6898 25.1406 22.0282C27.7309 23.391 29 25.1005 29 26.7235C28.9999 28.4919 28.1032 30.1618 25.916 31.4403C23.6867 32.7434 20.1368 33.6151 15 33.6151C9.86323 33.6151 6.31333 32.7434 4.08398 31.4403C1.89677 30.1618 1.00012 28.4919 1 26.7235C1 25.1005 2.26908 23.391 4.85938 22.0282C7.40338 20.6898 10.9868 19.8319 15 19.8319ZM15 1.97156C16.3917 1.97156 17.7198 2.70107 18.7285 3.92468C19.7374 5.14853 20.3632 6.79895 20.3633 8.4657C20.3633 11.8667 17.8323 14.6903 15 14.6903C12.1677 14.6903 9.63672 11.8667 9.63672 8.4657C9.63675 6.79895 10.2626 5.14853 11.2715 3.92468C12.2802 2.70107 13.6083 1.97156 15 1.97156Z" stroke="black" stroke-width="2"/>
</svg>
